# xmcd CD database file
#
# Track frame offsets:
#	150
#	14648
#	30783
#	55869
#	75113
#	101234
#	142422
#	166779
#	193644
#	230871
#	246674
#	266832
#	285653
#	304587
#	334275
#
# Disc length: 4648 seconds
#
# Revision: 0
# Processed by: cddbd v1.5.2PL0 Copyright (c) Steve Scherf et al.
# Submitted via: CDex 1.51
#
DISCID=d812260f
DTITLE=Cleo Laine - John Dankworth - I Hear Music - Disk 4
DYEAR=2007
DGENRE=Jazz
TTITLE0=Woman Talk
TTITLE1=No One Is Alone
TTITLE2=Son of Sparky
TTITLE3=Wond'rin' a Little
TTITLE4=Emily
TTITLE5=The Maggot
TTITLE6=A Child Is Born
TTITLE7=Around the Track
TTITLE8=Jelly Mould Blues
TTITLE9=Sinner's Rue
TTITLE10=Once Upon a Time
TTITLE11=Over Hill, Over Dale
TTITLE12=Don't Mention It
TTITLE13=Dreams of Castilla
TTITLE14=Los Cuatro Muleros
EXTD=YEAR: 2007
EXTT0=
EXTT1=
EXTT2=
EXTT3=
EXTT4=
EXTT5=
EXTT6=
EXTT7=
EXTT8=
EXTT9=
EXTT10=
EXTT11=
EXTT12=
EXTT13=
EXTT14=
PLAYORDER=
